<svg xmlns="http://www.w3.org/2000/svg" viewBox="0 0 24 24" fill="none" stroke="#4B0082" stroke-width="2" stroke-linecap="round" stroke-linejoin="round">
  <path d="M7.5 8 4 3l5.5 2"/>
  <path d="M16.5 8 20 3l-5.5 2"/>
  <path d="M6 11c0-4 2.6-7 6-7s6 3 6 7v4.5c0 3-2.4 5.5-6 5.5s-6-2.5-6-5.5V11Z"/>
  <path d="M8.5 12.5 11 11l-.5 3-2-1.5Z" fill="#4B0082" stroke="none"/>
  <path d="M15.5 12.5 13 11l.5 3 2-1.5Z" fill="#4B0082" stroke="none"/>
  <path d="M12 15v2"/>
  <path d="M9.5 18h5"/>
  <path d="M10 18v2"/>
  <path d="M14 18v2"/>
</svg>
